HIERARCHY
ROOT SpineBase
{
  OFFSET 0.000000 0.000000 0.000000
  CHANNELS 6 Xposition Yposition Zposition Zrotation Xrotation Yrotation
  JOINT SpineMid
  {
    OFFSET 0.000000 31.694546 0.000000
    CHANNELS 3 Zrotation Xrotation Yrotation
    JOINT SpineShoulder
    {
      OFFSET 0.036040 23.509823 -0.817042
      CHANNELS 3 Zrotation Xrotation Yrotation
      JOINT Neck
      {
        OFFSET 0.028023 7.776409 -0.610518
        CHANNELS 3 Zrotation Xrotation Yrotation
        JOINT Head
        {
          OFFSET -4.690506 13.296684 1.371897
          CHANNELS 3 Zrotation Xrotation Yrotation
          End Site
          {
            OFFSET 0 0 0
          }
        }
      }
      JOINT ShoulderLeft
      {
        OFFSET -16.430481 -4.710709 8.354293
        CHANNELS 3 Zrotation Xrotation Yrotation
        JOINT ElbowLeft
        {
          OFFSET -3.662365 -28.868295 2.325182
          CHANNELS 3 Zrotation Xrotation Yrotation
          JOINT WristLeft
          {
            OFFSET 0.356708 -21.650355 -2.496923
            CHANNELS 3 Zrotation Xrotation Yrotation
            JOINT HandLeft
            {
              OFFSET -0.761650 -6.800845 -0.838581
              CHANNELS 3 Zrotation Xrotation Yrotation
              JOINT HandTipLeft
              {
                OFFSET 0.649134 -7.140952 -0.783351
                CHANNELS 3 Zrotation Xrotation Yrotation
                End Site
                {
                  OFFSET 0 0 0
                }
              }
              JOINT ThumbLeft
              {
                OFFSET 3.273389 0.297014 -1.372969
                CHANNELS 3 Zrotation Xrotation Yrotation
                End Site
                {
                  OFFSET 0 0 0
                }
              }
            }
          }
        }
      }
      JOINT ShoulderRight
      {
        OFFSET 12.888448 -3.497701 -7.935630
        CHANNELS 3 Zrotation Xrotation Yrotation
        JOINT ElbowRight
        {
          OFFSET 8.149239 -23.074862 -1.875264
          CHANNELS 3 Zrotation Xrotation Yrotation
          JOINT WristRight
          {
            OFFSET -10.383552 -15.404493 -9.636042
            CHANNELS 3 Zrotation Xrotation Yrotation
            JOINT HandRight
            {
              OFFSET -7.919515 -3.184791 0.075673
              CHANNELS 3 Zrotation Xrotation Yrotation
              JOINT HandTipRight
              {
                OFFSET -6.564434 -2.470752 -4.142270
                CHANNELS 3 Zrotation Xrotation Yrotation
                End Site
                {
                  OFFSET 0 0 0
                }
              }
              JOINT ThumbRight
              {
                OFFSET 2.559020 -5.870384 2.463796
                CHANNELS 3 Zrotation Xrotation Yrotation
                End Site
                {
                  OFFSET 0 0 0
                }
              }
            }
          }
        }
      }
    }
  }
  JOINT HipLeft
  {
    OFFSET -6.434751 -0.105825 -0.570851
    CHANNELS 3 Zrotation Xrotation Yrotation
    JOINT KneeLeft
    {
      OFFSET 2.320688 -36.072773 4.494303
      CHANNELS 3 Zrotation Xrotation Yrotation
      JOINT AnkleLeft
      {
        OFFSET 9.268674 -36.282155 10.084674
        CHANNELS 3 Zrotation Xrotation Yrotation
        JOINT FootLeft
        {
          OFFSET -2.023773 -6.522064 -5.372169
          CHANNELS 3 Zrotation Xrotation Yrotation
          End Site
          {
            OFFSET 0 0 0
          }
        }
      }
    }
  }
  JOINT HipRight
  {
    OFFSET 6.881987 1.840596 -6.520758
    CHANNELS 3 Zrotation Xrotation Yrotation
    JOINT KneeRight
    {
      OFFSET 6.528473 -34.776387 -1.537986
      CHANNELS 3 Zrotation Xrotation Yrotation
      JOINT AnkleRight
      {
        OFFSET 5.878624 -36.647630 9.261531
        CHANNELS 3 Zrotation Xrotation Yrotation
        JOINT FootRight
        {
          OFFSET -1.430988 -5.524878 -6.154752
          CHANNELS 3 Zrotation Xrotation Yrotation
          End Site
          {
            OFFSET 0 0 0
          }
        }
      }
    }
  }
}
MOTION
Frames: 6
Frame Time: 0.033333
-20.177735 81.896158 333.802081 1.110472 -3.475479 19.097977 -0.266189 -0.372460 -19.016965 0.001441 -0.385455 0.055506 -1.345384 -4.812457 -3.271056 0.000000 0.000000 0.000000 -0.374168 -18.326737 2.931882 1.201688 18.112774 -3.417356 4.598397 -6.308492 0.845610 -0.597691 9.754615 -1.506718 0.000000 0.000000 0.000000 0.000000 0.000000 0.000000 -22.389509 27.279637 16.616517 -68.950598 15.191535 15.159916 -19.808097 -29.941108 -37.262005 38.218264 23.986125 7.512257 0.000000 0.000000 0.000000 0.000000 0.000000 0.000000 -1.347114 2.952440 -19.197101 1.123079 1.127770 0.201551 -0.088688 -2.147892 0.749331 0.000000 0.000000 0.000000 -3.045718 5.093342 -18.609294 3.422613 -0.365875 -0.208026 2.142901 -5.310768 -0.966146 0.000000 0.000000 0.000000
-20.153653 81.679336 333.768548 1.045580 -3.601181 22.415852 -0.215201 -0.357477 -22.337694 -0.035949 -0.356731 0.053724 -0.994101 -4.833011 -3.330331 0.000000 0.000000 0.000000 -0.522062 -18.159443 2.882653 1.441829 18.205088 -3.450406 4.340529 -7.062121 0.980100 0.067585 11.750046 -1.695618 0.000000 0.000000 0.000000 0.000000 0.000000 0.000000 -22.275801 26.952738 16.385517 -70.192292 15.622738 16.299998 -14.267671 -27.019626 -38.392862 34.629764 21.110366 13.653541 0.000000 0.000000 0.000000 0.000000 0.000000 0.000000 -0.852136 3.585426 -22.493119 1.105662 0.612646 0.171269 0.068018 -1.631783 0.456753 0.000000 0.000000 0.000000 -2.840501 4.574677 -22.097374 3.318286 0.440204 -0.076476 1.499186 -7.802202 0.495305 0.000000 0.000000 0.000000
-20.104412 81.395127 333.729745 0.993135 -3.690805 26.014888 -0.181593 -0.329624 -25.939537 -0.048278 -0.330135 0.052581 -0.605647 -4.936116 -3.408778 0.000000 0.000000 0.000000 -0.634812 -17.955647 2.833140 1.671066 18.144336 -3.486463 3.290273 -9.114294 1.395972 0.902251 14.209995 -2.135939 0.000000 0.000000 0.000000 0.000000 0.000000 0.000000 -22.042374 26.599591 16.090734 -71.648494 15.650197 17.425168 -6.546481 -25.195395 -39.121801 29.421230 17.371440 20.224189 0.000000 0.000000 0.000000 0.000000 0.000000 0.000000 -0.291910 4.228541 -26.076765 1.121894 0.019562 0.140762 0.345021 -1.342529 0.137911 0.000000 0.000000 0.000000 -2.844096 3.929553 -25.885065 3.280280 1.402008 0.077493 1.255026 -11.348068 1.889801 0.000000 0.000000 0.000000
-19.993512 81.080062 333.650895 1.000610 -3.732704 29.446271 -0.152755 -0.256816 -29.370545 -0.064410 -0.296144 0.052255 -0.315707 -5.176510 -3.495247 0.000000 0.000000 0.000000 -0.682533 -17.907969 2.808856 1.693581 17.947001 -3.468839 2.433432 -8.538731 1.388223 1.781566 16.397306 -2.119261 0.000000 0.000000 0.000000 0.000000 0.000000 0.000000 -22.110394 26.338417 15.984538 -72.769683 15.727676 18.258824 -2.154510 -26.106615 -39.213536 26.071472 16.603090 22.093500 0.000000 0.000000 0.000000 0.000000 0.000000 0.000000 0.240982 4.806470 -29.497952 1.152079 -0.570532 0.112431 0.880581 -1.072465 -0.388225 0.000000 0.000000 0.000000 -3.190788 3.264412 -29.503143 3.370897 2.464161 0.239470 1.925954 -15.935426 2.712392 0.000000 0.000000 0.000000
-19.819663 80.748418 333.532941 1.096818 -3.743122 32.812960 -0.147942 -0.180031 -32.731072 -0.066555 -0.256088 0.055029 -0.177465 -5.299958 -3.524980 0.000000 0.000000 0.000000 -0.721350 -17.869013 2.795316 1.538262 17.614506 -3.397884 2.029038 -7.511768 1.293461 3.804660 15.534297 -2.617409 0.000000 0.000000 0.000000 0.000000 0.000000 0.000000 -22.037831 25.862591 15.670506 -74.245269 15.817586 19.450471 1.329414 -27.617204 -39.157865 23.788585 14.607151 24.291106 0.000000 0.000000 0.000000 0.000000 0.000000 0.000000 0.683996 5.427531 -32.861124 1.270562 -1.188051 0.094855 1.142837 -1.574042 -0.443617 0.000000 0.000000 0.000000 -3.983933 2.626749 -33.062960 3.649226 3.712214 0.414314 3.555300 -21.426190 2.976894 0.000000 0.000000 0.000000
-19.613083 80.438623 333.400087 1.259772 -3.708634 35.566147 -0.159320 -0.089271 -35.474233 -0.052205 -0.212326 0.059980 -0.215791 -5.468772 -3.544906 0.000000 0.000000 0.000000 -0.780818 -18.048984 2.808347 1.355098 17.287280 -3.349427 0.797309 -6.213228 1.284237 7.337276 15.567427 -3.411628 0.000000 0.000000 0.000000 0.000000 0.000000 0.000000 -22.156112 25.452793 15.458917 -75.126308 16.063190 20.287643 2.636640 -29.510607 -38.928387 21.707190 15.023982 24.559026 0.000000 0.000000 0.000000 0.000000 0.000000 0.000000 1.000562 5.985789 -35.614669 1.410191 -1.741063 0.084888 1.157305 -2.054486 -0.300352 0.000000 0.000000 0.000000 -5.043620 2.160752 -35.982795 4.055372 4.915610 0.564962 2.640528 -16.541548 2.110363 0.000000 0.000000 0.000000
